<?xml version="1.0" encoding="UTF-8"?>
<svg xmlns="http://www.w3.org/2000/svg" xmlns:xlink="http://www.w3.org/1999/xlink" viewBox="0 0 50 50" width="50px" height="50px">
<g id="surface137590710">
<path style=" stroke:none;fill-rule:nonzero;fill:rgb(92.54902%,94.117647%,94.509804%);fill-opacity:1;" d="M 25 3 C 12.851562 3 3 12.851562 3 25 C 3 37.148438 12.851562 47 25 47 C 37.148438 47 47 37.148438 47 25 C 47 12.851562 37.148438 3 25 3 Z M 25 11 C 32.71875 11 39 17.28125 39 25 C 39 32.71875 32.71875 39 25 39 C 17.28125 39 11 32.71875 11 25 C 11 17.28125 17.28125 11 25 11 Z M 25 13 C 18.382812 13 13 18.382812 13 25 C 13 31.617188 18.382812 37 25 37 C 31.617188 37 37 31.617188 37 25 C 37 18.382812 31.617188 13 25 13 Z M 22.019531 18.503906 C 22.195312 18.503906 22.367188 18.550781 22.523438 18.648438 L 31.523438 24.148438 C 31.816406 24.328125 32 24.652344 32 25 C 32 25.347656 31.820312 25.671875 31.523438 25.855469 L 22.523438 31.355469 C 22.363281 31.449219 22.179688 31.5 22 31.5 C 21.832031 31.5 21.664062 31.457031 21.511719 31.371094 C 21.195312 31.195312 21 30.859375 21 30.5 L 21 19.5 C 21 19.140625 21.195312 18.804688 21.511719 18.628906 C 21.671875 18.539062 21.84375 18.5 22.019531 18.503906 Z M 22.019531 18.503906 "/>
</g>
</svg>
